<?xml version="1.0" encoding="UTF-8" standalone="no"?>
<svg
   xmlns:dc="http://purl.org/dc/elements/1.1/"
   xmlns:cc="http://creativecommons.org/ns#"
   xmlns:rdf="http://www.w3.org/1999/02/22-rdf-syntax-ns#"
   xmlns:svg="http://www.w3.org/2000/svg"
   xmlns="http://www.w3.org/2000/svg"
   xmlns:sodipodi="http://sodipodi.sourceforge.net/DTD/sodipodi-0.dtd"
   xmlns:inkscape="http://www.inkscape.org/namespaces/inkscape"
   width="53.695366mm"
   height="8.5039272mm"
   viewBox="0 0 53.695366 8.5039272"
   version="1.1"
   id="svg8"
   sodipodi:docname="logo.svg"
   inkscape:version="1.0.2 (1.0.2+r75+1)">
  <defs
     id="defs2" />
  <sodipodi:namedview
     id="base"
     pagecolor="#ffffff"
     bordercolor="#666666"
     borderopacity="1.0"
     inkscape:pageopacity="0.0"
     inkscape:pageshadow="2"
     inkscape:zoom="2.9267345"
     inkscape:cx="71.164668"
     inkscape:cy="25.827346"
     inkscape:document-units="mm"
     inkscape:current-layer="layer1"
     inkscape:document-rotation="0"
     showgrid="false"
     fit-margin-top="0"
     fit-margin-left="0"
     fit-margin-right="0"
     fit-margin-bottom="0"
     inkscape:window-width="1920"
     inkscape:window-height="1013"
     inkscape:window-x="0"
     inkscape:window-y="30"
     inkscape:window-maximized="1" />
  <metadata
     id="metadata5">
    <rdf:RDF>
      <cc:Work
         rdf:about="">
        <dc:format>image/svg+xml</dc:format>
        <dc:type
           rdf:resource="http://purl.org/dc/dcmitype/StillImage" />
        <dc:title></dc:title>
      </cc:Work>
    </rdf:RDF>
  </metadata>
  <g
     inkscape:groupmode="layer"
     id="layer2"
     inkscape:label="Layer 2"
     transform="translate(-24.181018,-51.036625)">
    <rect
       style="fill:#ffa726;fill-opacity:1;stroke-width:0.0309765;stroke-linejoin:round;stroke-dasharray:0.0619532, 0.0309765, 0.0154883, 0.0309765;paint-order:stroke fill markers;stop-color:#000000"
       id="rect18"
       width="14.886696"
       height="8.6723108"
       x="67.680275"
       y="52.136326"
       transform="matrix(1,0,-0.20430539,0.9789072,0,0)" />
  </g>
  <g
     inkscape:label="Layer 1"
     inkscape:groupmode="layer"
     id="layer1"
     transform="translate(-24.181018,-51.036625)">
    <g
       aria-label="Cartera"
       id="text12"
       style="font-style:normal;font-weight:normal;font-size:10.5833px;line-height:1.25;font-family:sans-serif;fill:#000000;fill-opacity:1;stroke:none;stroke-width:0.264583">
      <path
         d="m 29.6432,52.832135 q 0,0.976681 -0.744139,0.976681 -0.372069,0 -0.599444,-0.273884 0.191202,-0.103353 0.335895,-0.387572 0.149862,-0.28422 0.149862,-0.563271 0,-0.28422 -0.149862,-0.475422 -0.144693,-0.19637 -0.470254,-0.19637 -0.320392,0 -0.599444,0.21704 -0.273884,0.217041 -0.516763,0.58911 -0.490924,0.744138 -0.800982,1.901687 -0.310058,1.157548 -0.310058,2.103224 0,0.940508 0.273885,1.364253 0.279051,0.418578 0.950843,0.418578 1.322912,0 2.108392,-1.059364 l 0.242878,0.108521 q -0.506427,1.281571 -1.927525,1.777663 -0.558103,0.19637 -1.095537,0.19637 -0.0155,0 -0.031,0 -1.173052,-0.01033 -1.725988,-0.60978 -0.552936,-0.599445 -0.552936,-1.927525 0,-1.32808 0.439248,-2.650992 0.511596,-1.560624 1.508947,-2.335768 0.764809,-0.589109 1.746658,-0.589109 1.229896,0 1.627803,0.769976 0.139526,0.268717 0.139526,0.645954 z"
         style="font-style:normal;font-variant:normal;font-weight:normal;font-stretch:normal;font-size:10.5833px;font-family:'Lobster 1.4', '@wght=900';-inkscape-font-specification:'Lobster 1.4, @wght=900';font-variant-ligatures:normal;font-variant-caps:normal;font-variant-numeric:normal;font-variant-east-asian:normal;stroke-width:0.264583"
         id="path1118" />
      <path
         d="m 35.26041,57.457161 q -0.671791,1.95853 -2.123895,1.95853 -0.93534,0 -1.038692,-0.971514 -0.692462,0.971514 -1.617468,0.971514 -0.919837,0 -1.250565,-0.904335 -0.118856,-0.32556 -0.118856,-0.73897 0,-0.418578 0.07235,-0.831988 0.07235,-0.418578 0.222208,-0.831988 0.330728,-0.909502 0.945676,-1.503779 0.614947,-0.594277 1.483109,-0.594277 0.454751,0 0.656288,0.155028 0.201538,0.149862 0.201538,0.382405 v 0.07751 l 0.113687,-0.563271 h 1.52445 l -0.759641,3.596668 q -0.04651,0.180867 -0.04651,0.341063 0,0.454752 0.434081,0.454752 0.563271,0 0.857826,-0.997352 z m -2.666495,-2.387444 q 0,-0.09818 -0.09302,-0.248046 -0.08785,-0.155029 -0.382404,-0.155029 -0.294555,0 -0.573607,0.315225 -0.671791,0.759642 -0.842323,2.180739 -0.02584,0.21704 -0.02584,0.459919 0,0.470254 0.19637,0.656288 0.113688,0.113688 0.284219,0.113688 0.315226,0 0.573607,-0.248046 0.258381,-0.253214 0.356566,-0.687294 z"
         style="font-style:normal;font-variant:normal;font-weight:normal;font-stretch:normal;font-size:10.5833px;font-family:'Lobster 1.4', '@wght=900';-inkscape-font-specification:'Lobster 1.4, @wght=900';font-variant-ligatures:normal;font-variant-caps:normal;font-variant-numeric:normal;font-variant-east-asian:normal;stroke-width:0.264583"
         id="path1120" />
      <path
         d="m 34.407752,59.35368 1.121375,-5.29165 h 1.52445 l -0.134358,0.656288 q 0.263549,-0.232543 0.578774,-0.444415 0.320393,-0.211873 0.687295,-0.211873 0.372069,0 0.558103,0.242878 0.186035,0.242879 0.186035,0.465087 0,0.382404 -0.206705,0.620115 -0.201538,0.237711 -0.490925,0.237711 -0.289387,0 -0.382404,-0.129191 -0.09302,-0.134358 -0.113688,-0.268717 -0.02067,-0.139525 -0.05684,-0.21704 -0.03101,-0.08268 -0.139526,-0.08268 -0.21704,0 -0.382404,0.103353 -0.165364,0.09819 -0.377237,0.299722 l -0.847491,4.020414 z"
         style="font-style:normal;font-variant:normal;font-weight:normal;font-stretch:normal;font-size:10.5833px;font-family:'Lobster 1.4', '@wght=900';-inkscape-font-specification:'Lobster 1.4, @wght=900';font-variant-ligatures:normal;font-variant-caps:normal;font-variant-numeric:normal;font-variant-east-asian:normal;stroke-width:0.264583"
         id="path1122" />
      <path
         d="m 42.071343,57.457161 q -0.682127,1.95853 -2.278924,1.95853 -0.418578,0 -0.749306,-0.299722 -0.32556,-0.299723 -0.32556,-0.966346 0,-0.299723 0.08268,-0.692462 l 0.635618,-2.971386 h -0.351399 l 0.08785,-0.423745 h 0.346231 l 0.320393,-1.462439 1.565791,-0.211872 -0.361734,1.674311 h 0.635618 l -0.08268,0.423745 h -0.635618 l -0.676959,3.172923 q -0.04134,0.191202 -0.04134,0.377237 0,0.356566 0.428913,0.356566 0.310057,0 0.573606,-0.268717 0.268717,-0.268716 0.382405,-0.666623 z"
         style="font-style:normal;font-variant:normal;font-weight:normal;font-stretch:normal;font-size:10.5833px;font-family:'Lobster 1.4', '@wght=900';-inkscape-font-specification:'Lobster 1.4, @wght=900';font-variant-ligatures:normal;font-variant-caps:normal;font-variant-numeric:normal;font-variant-east-asian:normal;stroke-width:0.264583"
         id="path1124" />
      <path
         d="m 46.055582,57.457161 q -1.188554,1.95853 -2.909374,1.95853 -0.754473,0 -1.204057,-0.387572 -0.449583,-0.392739 -0.449583,-1.291907 0,-1.209224 0.614947,-2.340934 0.470254,-0.862994 1.281572,-1.229896 0.418577,-0.196369 0.868161,-0.196369 0.733803,0 0.997352,0.279051 0.263549,0.273885 0.263549,0.733803 0,0.904335 -0.728636,1.539953 -0.728635,0.630451 -1.705316,0.692462 -0.02584,0.299723 -0.02584,0.423746 0,0.5426 0.191203,0.7183 0.191202,0.170531 0.537433,0.170531 0.60978,0 1.02319,-0.268716 0.418578,-0.273884 0.883664,-0.800982 z m -1.353918,-2.54764 q 0,-0.382405 -0.263549,-0.382405 -0.387572,0.01034 -0.749306,0.687295 -0.361734,0.671791 -0.52193,1.493444 0.60978,-0.04134 1.069698,-0.568439 0.465087,-0.527098 0.465087,-1.229895 z"
         style="font-style:normal;font-variant:normal;font-weight:normal;font-stretch:normal;font-size:10.5833px;font-family:'Lobster 1.4', '@wght=900';-inkscape-font-specification:'Lobster 1.4, @wght=900';font-variant-ligatures:normal;font-variant-caps:normal;font-variant-numeric:normal;font-variant-east-asian:normal;stroke-width:0.264583"
         id="path1126" />
      <path
         d="m 45.301109,59.35368 1.121375,-5.29165 h 1.52445 l -0.134359,0.656288 q 0.263549,-0.232543 0.578775,-0.444415 0.320392,-0.211873 0.687294,-0.211873 0.372069,0 0.558104,0.242878 0.186034,0.242879 0.186034,0.465087 0,0.382404 -0.206705,0.620115 -0.201537,0.237711 -0.490924,0.237711 -0.289388,0 -0.382405,-0.129191 -0.09302,-0.134358 -0.113688,-0.268717 -0.02067,-0.139525 -0.05684,-0.21704 -0.03101,-0.08268 -0.139525,-0.08268 -0.217041,0 -0.382405,0.103353 -0.165364,0.09819 -0.377237,0.299722 l -0.84749,4.020414 z"
         style="font-style:normal;font-variant:normal;font-weight:normal;font-stretch:normal;font-size:10.5833px;font-family:'Lobster 1.4', '@wght=900';-inkscape-font-specification:'Lobster 1.4, @wght=900';font-variant-ligatures:normal;font-variant-caps:normal;font-variant-numeric:normal;font-variant-east-asian:normal;stroke-width:0.264583"
         id="path1128" />
      <path
         d="m 52.540954,58.433842 q -0.656288,0.981849 -1.596796,0.981849 -0.940508,0 -1.271236,-0.904335 -0.118856,-0.32556 -0.118856,-0.73897 0,-0.418578 0.07235,-0.831988 0.07235,-0.418578 0.222208,-0.831988 0.330728,-0.909502 0.945676,-1.503779 0.614947,-0.594277 1.483108,-0.594277 0.454752,0 0.656289,0.155028 0.201538,0.149862 0.201538,0.382405 v 0.07751 l 0.113687,-0.563271 h 1.52445 l -0.759641,3.596668 q -0.04651,0.180867 -0.04651,0.372069 0,0.361734 0.434081,0.361734 0.139526,0 0.232543,-0.04651 -0.222208,0.594278 -0.377236,0.769977 -0.273885,0.299722 -0.69763,0.299722 -0.418578,0 -0.687294,-0.253214 -0.268717,-0.258381 -0.330729,-0.728635 z m 0.496093,-3.364125 q 0,-0.09818 -0.09302,-0.248046 -0.08785,-0.155029 -0.382404,-0.155029 -0.294555,0 -0.573607,0.315225 -0.671791,0.759642 -0.842323,2.180739 -0.02584,0.21704 -0.02584,0.459919 0,0.470254 0.19637,0.656288 0.113688,0.113688 0.284219,0.113688 0.315226,0 0.573607,-0.248046 0.258381,-0.253214 0.356566,-0.687294 z"
         style="font-style:normal;font-variant:normal;font-weight:normal;font-stretch:normal;font-size:10.5833px;font-family:'Lobster 1.4', '@wght=900';-inkscape-font-specification:'Lobster 1.4, @wght=900';font-variant-ligatures:normal;font-variant-caps:normal;font-variant-numeric:normal;font-variant-east-asian:normal;stroke-width:0.264583"
         id="path1130" />
    </g>
    <text
       xml:space="preserve"
       style="font-style:normal;font-weight:normal;font-size:10.5833px;line-height:1.25;font-family:sans-serif;fill:#000000;fill-opacity:1;stroke:none;stroke-width:0.264583"
       x="60.943359"
       y="54.873531"
       id="text16"><tspan
         sodipodi:role="line"
         id="tspan14"
         x="60.943359"
         y="54.873531"
         style="stroke-width:0.264583" /></text>
    <path
       id="rect22"
       style="fill:#000000;stroke-width:0.138398;stroke-linejoin:round;stroke-dasharray:0.276796, 0.138398, 0.069199, 0.138398;paint-order:stroke fill markers;stop-color:#000000"
       d="m 278.11523,204.31055 -0.21875,0.13867 v 6.08398 h -66.13476 l -1.58789,7.9668 h 67.72265 v 6.39648 l 0.21875,0.13868 16.22071,-10.36328 z"
       transform="scale(0.26458333)" />
  </g>
</svg>
