<svg width="53.695mm" height="8.5039mm" version="1.1" viewBox="0 0 53.695 8.5039" xmlns="http://www.w3.org/2000/svg">
 <g transform="translate(-24.181 -51.037)">
  <rect transform="matrix(1 0 -.20431 .97891 0 0)" x="67.68" y="52.136" width="14.887" height="8.6723" fill="#ffa726" stop-color="#000000" stroke-dasharray="0.0619532, 0.0309765, 0.0154883, 0.0309765" stroke-linejoin="round" stroke-width=".030976" style="paint-order:stroke fill markers"/>
 </g>
 <g transform="translate(-24.181 -51.037)">
  <g fill="#fff" stroke-width=".26458" aria-label="Cartera">
   <path d="m29.643 52.832q0 0.97668-0.74414 0.97668-0.37207 0-0.59944-0.27388 0.1912-0.10335 0.3359-0.38757 0.14986-0.28422 0.14986-0.56327 0-0.28422-0.14986-0.47542-0.14469-0.19637-0.47025-0.19637-0.32039 0-0.59944 0.21704-0.27388 0.21704-0.51676 0.58911-0.49092 0.74414-0.80098 1.9017-0.31006 1.1575-0.31006 2.1032 0 0.94051 0.27388 1.3643 0.27905 0.41858 0.95084 0.41858 1.3229 0 2.1084-1.0594l0.24288 0.10852q-0.50643 1.2816-1.9275 1.7777-0.5581 0.19637-1.0955 0.19637-0.0155 0-0.031 0-1.1731-0.01033-1.726-0.60978-0.55294-0.59944-0.55294-1.9275t0.43925-2.651q0.5116-1.5606 1.5089-2.3358 0.76481-0.58911 1.7467-0.58911 1.2299 0 1.6278 0.76998 0.13953 0.26872 0.13953 0.64595z" style="font-variant-caps:normal;font-variant-east-asian:normal;font-variant-ligatures:normal;font-variant-numeric:normal"/>
   <path d="m35.26 57.457q-0.67179 1.9585-2.1239 1.9585-0.93534 0-1.0387-0.97151-0.69246 0.97151-1.6175 0.97151-0.91984 0-1.2506-0.90434-0.11886-0.32556-0.11886-0.73897 0-0.41858 0.07235-0.83199 0.07235-0.41858 0.22221-0.83199 0.33073-0.9095 0.94568-1.5038 0.61495-0.59428 1.4831-0.59428 0.45475 0 0.65629 0.15503 0.20154 0.14986 0.20154 0.3824v0.07751l0.11369-0.56327h1.5244l-0.75964 3.5967q-0.04651 0.18087-0.04651 0.34106 0 0.45475 0.43408 0.45475 0.56327 0 0.85783-0.99735zm-2.6665-2.3874q0-0.09818-0.09302-0.24805-0.08785-0.15503-0.3824-0.15503-0.29456 0-0.57361 0.31522-0.67179 0.75964-0.84232 2.1807-0.02584 0.21704-0.02584 0.45992 0 0.47025 0.19637 0.65629 0.11369 0.11369 0.28422 0.11369 0.31523 0 0.57361-0.24805 0.25838-0.25321 0.35657-0.68729z" style="font-variant-caps:normal;font-variant-east-asian:normal;font-variant-ligatures:normal;font-variant-numeric:normal"/>
   <path d="m34.408 59.354 1.1214-5.2916h1.5244l-0.13436 0.65629q0.26355-0.23254 0.57877-0.44442 0.32039-0.21187 0.6873-0.21187 0.37207 0 0.5581 0.24288 0.18604 0.24288 0.18604 0.46509 0 0.3824-0.2067 0.62012-0.20154 0.23771-0.49092 0.23771t-0.3824-0.12919q-0.09302-0.13436-0.11369-0.26872-0.02067-0.13952-0.05684-0.21704-0.03101-0.08268-0.13953-0.08268-0.21704 0-0.3824 0.10335-0.16536 0.09819-0.37724 0.29972l-0.84749 4.0204z" style="font-variant-caps:normal;font-variant-east-asian:normal;font-variant-ligatures:normal;font-variant-numeric:normal"/>
   <path d="m42.071 57.457q-0.68213 1.9585-2.2789 1.9585-0.41858 0-0.74931-0.29972-0.32556-0.29972-0.32556-0.96635 0-0.29972 0.08268-0.69246l0.63562-2.9714h-0.3514l0.08785-0.42374h0.34623l0.32039-1.4624 1.5658-0.21187-0.36173 1.6743h0.63562l-0.08268 0.42374h-0.63562l-0.67696 3.1729q-0.04134 0.1912-0.04134 0.37724 0 0.35657 0.42891 0.35657 0.31006 0 0.57361-0.26872 0.26872-0.26872 0.3824-0.66662z" style="font-variant-caps:normal;font-variant-east-asian:normal;font-variant-ligatures:normal;font-variant-numeric:normal"/>
   <path d="m46.056 57.457q-1.1886 1.9585-2.9094 1.9585-0.75447 0-1.2041-0.38757-0.44958-0.39274-0.44958-1.2919 0-1.2092 0.61495-2.3409 0.47025-0.86299 1.2816-1.2299 0.41858-0.19637 0.86816-0.19637 0.7338 0 0.99735 0.27905 0.26355 0.27388 0.26355 0.7338 0 0.90434-0.72864 1.54-0.72864 0.63045-1.7053 0.69246-0.02584 0.29972-0.02584 0.42375 0 0.5426 0.1912 0.7183 0.1912 0.17053 0.53743 0.17053 0.60978 0 1.0232-0.26872 0.41858-0.27388 0.88366-0.80098zm-1.3539-2.5476q0-0.3824-0.26355-0.3824-0.38757 0.01034-0.74931 0.6873-0.36173 0.67179-0.52193 1.4934 0.60978-0.04134 1.0697-0.56844 0.46509-0.5271 0.46509-1.2299z" style="font-variant-caps:normal;font-variant-east-asian:normal;font-variant-ligatures:normal;font-variant-numeric:normal"/>
   <path d="m45.301 59.354 1.1214-5.2916h1.5244l-0.13436 0.65629q0.26355-0.23254 0.57878-0.44442 0.32039-0.21187 0.68729-0.21187 0.37207 0 0.5581 0.24288t0.18603 0.46509q0 0.3824-0.2067 0.62012-0.20154 0.23771-0.49092 0.23771-0.28939 0-0.3824-0.12919-0.09302-0.13436-0.11369-0.26872-0.02067-0.13952-0.05684-0.21704-0.03101-0.08268-0.13952-0.08268-0.21704 0-0.3824 0.10335-0.16536 0.09819-0.37724 0.29972l-0.84749 4.0204z" style="font-variant-caps:normal;font-variant-east-asian:normal;font-variant-ligatures:normal;font-variant-numeric:normal"/>
   <path d="m52.541 58.434q-0.65629 0.98185-1.5968 0.98185t-1.2712-0.90434q-0.11886-0.32556-0.11886-0.73897 0-0.41858 0.07235-0.83199 0.07235-0.41858 0.22221-0.83199 0.33073-0.9095 0.94568-1.5038 0.61495-0.59428 1.4831-0.59428 0.45475 0 0.65629 0.15503 0.20154 0.14986 0.20154 0.3824v0.07751l0.11369-0.56327h1.5244l-0.75964 3.5967q-0.04651 0.18087-0.04651 0.37207 0 0.36173 0.43408 0.36173 0.13953 0 0.23254-0.04651-0.22221 0.59428-0.37724 0.76998-0.27388 0.29972-0.69763 0.29972-0.41858 0-0.68729-0.25321-0.26872-0.25838-0.33073-0.72864zm0.49609-3.3641q0-0.09818-0.09302-0.24805-0.08785-0.15503-0.3824-0.15503-0.29456 0-0.57361 0.31522-0.67179 0.75964-0.84232 2.1807-0.02584 0.21704-0.02584 0.45992 0 0.47025 0.19637 0.65629 0.11369 0.11369 0.28422 0.11369 0.31523 0 0.57361-0.24805 0.25838-0.25321 0.35657-0.68729z" style="font-variant-caps:normal;font-variant-east-asian:normal;font-variant-ligatures:normal;font-variant-numeric:normal"/>
  </g>
  <text x="60.943359" y="54.873531" fill="#000000" font-family="sans-serif" font-size="10.583px" stroke-width=".26458" style="line-height:1.25" xml:space="preserve"><tspan x="60.943359" y="54.873531" stroke-width=".26458"/></text>
  <path transform="scale(.26458)" d="m278.12 204.31-0.21875 0.13867v6.084h-66.135l-1.5879 7.9668h67.723v6.3965l0.21875 0.13868 16.221-10.363z" fill="#fff" stop-color="#000000" stroke-dasharray="0.276796, 0.13839799999999999, 0.06919900000000000, 0.13839799999999999" stroke-linejoin="round" stroke-width=".1384" style="paint-order:stroke fill markers"/>
 </g>
</svg>
