<svg width="55.695mm" height="10.504mm" version="1.1" viewBox="0 0 55.695 10.504" xmlns="http://www.w3.org/2000/svg">
 <g transform="translate(-23.181 -50.037)">
  <path transform="matrix(.26458 0 0 .26458 24.181 51.037)" d="m124.15 0-3.6816 17.639h-0.0977l-1.5879 7.9668h0.0234l-1.3535 6.4805h56.266l1.3516-6.4805h11.436v6.3965l0.21875 0.13867 16.221-10.363-16.221-10.361-0.21875 0.13867v6.084h-9.7715l3.6798-17.639zm-110.18 1.4355c-2.474 0-4.6745 0.74219-6.6016 2.2266-2.513 1.9531-4.4141 4.8958-5.7031 8.8281-1.1068 3.3333-1.6602 6.6712-1.6602 10.018 0 3.3463 0.69662 5.7747 2.0898 7.2852 1.3932 1.5104 3.5677 2.2787 6.5234 2.3047h0.11719c1.3542 0 2.7344-0.2474 4.1406-0.74219 2.5672-0.89617 4.5315-2.3092 5.9141-4.2227 0.07331 0.39156 0.16872 0.76616 0.29688 1.1172 0.83333 2.2786 2.4089 3.418 4.7266 3.418 2.3307 0 4.3685-1.224 6.1133-3.6719 0.26041 2.4479 1.569 3.6719 3.9258 3.6719 2.0656 0 3.8169-0.78662 5.2559-2.3594l-0.45117 2.125h5.7617l3.2031-15.193c0.53385-0.5078 1.0091-0.8854 1.4258-1.1328 0.41666-0.26042 0.89844-0.39062 1.4453-0.39062 0.27343 0 0.44921 0.10417 0.52734 0.3125 0.09114 0.19531 0.16276 0.46875 0.21484 0.82031 0.05208 0.33854 0.19531 0.67709 0.42969 1.0156 0.23437 0.32552 0.71615 0.48828 1.4453 0.48828s1.3477-0.29948 1.8555-0.89844c0.52083-0.59896 0.78125-1.3802 0.78125-2.3438-1e-6 -0.55989-0.23438-1.1458-0.70313-1.7578-0.46875-0.61198-1.1719-0.91797-2.1094-0.91797-0.92448 0-1.7904 0.26693-2.5977 0.80078-0.79427 0.53385-1.5234 1.0938-2.1875 1.6797l0.50781-2.4805h-5.7617l-2.7598 13.025c-0.73988 2.3764-1.7976 3.5742-3.1777 3.5742-1.0937 0-1.6406-0.57292-1.6406-1.7188 0-0.40364 0.05859-0.83333 0.17578-1.2891l2.8711-13.592h-5.7617l-0.42969 2.1289v-0.29297c0-0.58594-0.25391-1.0677-0.76172-1.4453-0.50781-0.39062-1.3346-0.58594-2.4805-0.58594-2.1875 0-4.056 0.7487-5.6055 2.2461-1.5495 1.4974-2.7409 3.3919-3.5742 5.6836-0.3776 1.0417-0.65754 2.0879-0.83984 3.1426-0.15203 0.86869-0.22476 1.7434-0.25 2.6211-1.9084 2.1907-4.367 3.2969-7.3867 3.2969-1.6927 0-2.8906-0.52735-3.5937-1.582-0.6901-1.0677-1.0352-2.7845-1.0352-5.1543 0-2.3828 0.39063-5.0326 1.1719-7.9492 0.78125-2.9167 1.7904-5.3125 3.0273-7.1875 0.61198-0.9375 1.263-1.6797 1.9531-2.2266 0.70312-0.54687 1.4583-0.82031 2.2656-0.82031 0.82031 0 1.4128 0.2474 1.7773 0.74219 0.3776 0.48177 0.56641 1.0807 0.56641 1.7969 0 0.70312-0.1888 1.4128-0.56641 2.1289-0.36458 0.71614-0.78776 1.2044-1.2695 1.4648 0.57291 0.6901 1.3281 1.0352 2.2656 1.0352 1.875 0 2.8125-1.2305 2.8125-3.6914 0-0.95052-0.17578-1.7643-0.52734-2.4414-1.0026-1.9401-3.0534-2.9102-6.1523-2.9102zm51.133 3.6719-5.918 0.80078-1.2109 5.5273h-1.3086l-0.33203 1.6016h1.3281l-2.4023 11.229c-0.20833 0.98958-0.3125 1.862-0.3125 2.6172 0 1.6797 0.41016 2.8971 1.2305 3.6523 0.83333 0.7552 1.7773 1.1328 2.832 1.1328 2.8313 0 5.0893-1.2262 6.7793-3.6699 0.28066 0.92405 0.72561 1.6634 1.3457 2.2051 1.1328 0.97656 2.6497 1.4648 4.5508 1.4648 3.465 0 6.493-1.6023 9.1016-4.7539l-0.95703 4.5195h5.7617l3.2031-15.193c0.53385-0.5078 1.0091-0.8854 1.4258-1.1328 0.41666-0.26042 0.89844-0.39062 1.4453-0.39062 0.27342 0 0.44921 0.10417 0.52734 0.3125 0.09114 0.19531 0.16276 0.46875 0.21484 0.82031 0.05208 0.33854 0.19531 0.67709 0.42969 1.0156 0.23437 0.32552 0.71615 0.48828 1.4453 0.48828 0.72916 0 1.3477-0.29948 1.8555-0.89844 0.52083-0.59896 0.78125-1.3802 0.78125-2.3438 1e-6 -0.55989-0.23438-1.1458-0.70312-1.7578-0.46875-0.61198-1.1719-0.91797-2.1094-0.91797-0.92448 0-1.7904 0.26693-2.5977 0.80078-0.79427 0.53385-1.5234 1.0938-2.1875 1.6797l0.50781-2.4805h-5.7617l-2.7188 12.83h-0.03516c-1.1719 1.3281-2.2852 2.3372-3.3398 3.0273-1.0417 0.67708-2.3307 1.0156-3.8672 1.0156-0.87239 0-1.5495-0.21485-2.0312-0.64453-0.48177-0.44271-0.72266-1.3477-0.72266-2.7148 0-0.3125 0.03255-0.84636 0.09766-1.6016 2.4609-0.15625 4.6094-1.0267 6.4453-2.6152 1.8359-1.6016 2.7539-3.5417 2.7539-5.8203 0-1.1588-0.33203-2.0833-0.99609-2.7734-0.66406-0.70312-1.9206-1.0547-3.7695-1.0547-1.1328 0-2.2266 0.2474-3.2812 0.74219-2.0443 0.92448-3.6589 2.474-4.8438 4.6484-1.5495 2.8516-2.3242 5.7988-2.3242 8.8457 0 0.06136 5e-3 0.11731 0.0059 0.17774-0.25595 0.47813-0.56622 0.90997-0.94336 1.2871-0.66406 0.67708-1.3867 1.0156-2.168 1.0156-1.0807 0-1.6211-0.44922-1.6211-1.3477 0-0.46875 0.05209-0.94401 0.15625-1.4258l2.5586-11.99h2.4023l0.3125-1.6016h-2.4023zm41.094 6.1328c-2.1875 0-4.056 0.7487-5.6055 2.2461-1.5495 1.4974-2.7409 3.3919-3.5742 5.6836-0.3776 1.0417-0.65754 2.0879-0.83984 3.1426-0.1823 1.0417-0.27344 2.0898-0.27344 3.1445 0 1.0417 0.14974 1.9727 0.44922 2.793 0.83333 2.2786 2.4349 3.418 4.8047 3.418 2.3698 0 4.3815-1.237 6.0352-3.7109 0.15625 1.1849 0.57292 2.1029 1.25 2.7539 0.67708 0.63802 1.543 0.95703 2.5977 0.95703 1.0677 0 1.9466-0.37761 2.6367-1.1328 0.39062-0.44271 0.86588-1.4128 1.4258-2.9102-0.23438 0.11719-0.52735 0.17578-0.87891 0.17578-1.0938 0-1.6406-0.45573-1.6406-1.3672 1e-5 -0.48177 0.0586-0.95052 0.17579-1.4062l2.8711-13.592h-5.7617l-0.42969 2.1289v-0.29297c0-0.58594-0.2539-1.0677-0.76171-1.4453-0.50781-0.39062-1.3346-0.58594-2.4805-0.58594zm-29.629 1.9531c0.66406 0 0.99609 0.48177 0.99609 1.4453 0 1.7708-0.58594 3.3203-1.7578 4.6484-1.1588 1.3281-2.5065 2.0423-4.043 2.1465 0.40364-2.0703 1.0612-3.9499 1.9727-5.6426 0.91146-1.7057 1.8555-2.5716 2.832-2.5977zm-46.562 0.52734c0.74218 0 1.224 0.19531 1.4453 0.58594 0.23438 0.37762 0.35156 0.69012 0.35156 0.9375l-1.9141 9.0215c-0.2474 1.0937-0.69662 1.9596-1.3477 2.5977-0.65104 0.625-1.3737 0.9375-2.168 0.9375-0.42968 0-0.78776-0.14323-1.0742-0.42969-0.49479-0.46875-0.74219-1.2956-0.74219-2.4805 0-0.61198 0.03255-1.1914 0.09766-1.7383 0.42969-3.5807 1.4909-6.3262 3.1836-8.2402 0.70312-0.79427 1.4258-1.1914 2.168-1.1914zm77.266 0c0.74219 0 1.224 0.19531 1.4453 0.58594 0.23438 0.37762 0.35156 0.69012 0.35156 0.9375l-1.9141 9.0215c-0.2474 1.0937-0.69662 1.9596-1.3477 2.5977-0.65104 0.625-1.3737 0.9375-2.168 0.9375-0.42968 0-0.78776-0.14323-1.0742-0.42969-0.49479-0.46875-0.74218-1.2956-0.74218-2.4805 0-0.61198 0.0325-1.1914 0.0977-1.7383 0.42969-3.5807 1.4909-6.3262 3.1836-8.2402 0.70312-0.79427 1.4258-1.1914 2.168-1.1914z" stop-color="#000000" stroke="#fff" stroke-linejoin="round" stroke-width="7.5591" style="paint-order:markers stroke fill"/>
 </g>
 <g transform="translate(-23.181 -50.037)">
  <text x="60.943359" y="54.873531" fill="#000000" font-family="sans-serif" font-size="10.583px" stroke-width=".26458" style="line-height:1.25" xml:space="preserve"><tspan x="60.943359" y="54.873531" stroke-width=".26458"/></text>
  <rect transform="matrix(1 0 -.20431 .97891 0 0)" x="67.68" y="52.136" width="14.887" height="8.6723" fill="#ffa726" stop-color="#000000" stroke-dasharray="0.0619532, 0.0309765, 0.0154883, 0.0309765" stroke-linejoin="round" stroke-width=".030976" style="paint-order:stroke fill markers"/>
  <g>
   <g>
    <path d="m29.643 52.832q0 0.97668-0.74414 0.97668-0.37207 0-0.59944-0.27388 0.1912-0.10335 0.3359-0.38757 0.14986-0.28422 0.14986-0.56327 0-0.28422-0.14986-0.47542-0.14469-0.19637-0.47025-0.19637-0.32039 0-0.59944 0.21704-0.27388 0.21704-0.51676 0.58911-0.49092 0.74414-0.80098 1.9017-0.31006 1.1575-0.31006 2.1032 0 0.94051 0.27388 1.3643 0.27905 0.41858 0.95084 0.41858 1.3229 0 2.1084-1.0594l0.24288 0.10852q-0.50643 1.2816-1.9275 1.7777-0.5581 0.19637-1.0955 0.19637-0.0155 0-0.031 0-1.1731-0.01033-1.726-0.60978-0.55294-0.59944-0.55294-1.9275t0.43925-2.651q0.5116-1.5606 1.5089-2.3358 0.76481-0.58911 1.7467-0.58911 1.2299 0 1.6278 0.76998 0.13953 0.26872 0.13953 0.64595z" style="font-variant-caps:normal;font-variant-east-asian:normal;font-variant-ligatures:normal;font-variant-numeric:normal"/>
    <path d="m35.261 57.457q-0.67179 1.9585-2.1239 1.9585-0.93534 0-1.0387-0.97151-0.69246 0.97151-1.6175 0.97151-0.91984 0-1.2506-0.90434-0.11886-0.32556-0.11886-0.73897 0-0.41858 0.07235-0.83199 0.07235-0.41858 0.22221-0.83199 0.33073-0.9095 0.94568-1.5038 0.61495-0.59428 1.4831-0.59428 0.45475 0 0.65629 0.15503 0.20154 0.14986 0.20154 0.3824v0.07751l0.11369-0.56327h1.5244l-0.75964 3.5967q-0.04651 0.18087-0.04651 0.34106 0 0.45475 0.43408 0.45475 0.56327 0 0.85783-0.99735zm-2.6665-2.3874q0-0.09818-0.09302-0.24805-0.08785-0.15503-0.3824-0.15503-0.29456 0-0.57361 0.31522-0.67179 0.75964-0.84232 2.1807-0.02584 0.21704-0.02584 0.45992 0 0.47025 0.19637 0.65629 0.11369 0.11369 0.28422 0.11369 0.31523 0 0.57361-0.24805 0.25838-0.25321 0.35657-0.68729z" style="font-variant-caps:normal;font-variant-east-asian:normal;font-variant-ligatures:normal;font-variant-numeric:normal"/>
    <path d="m34.408 59.354 1.1214-5.2916h1.5244l-0.13436 0.65629q0.26355-0.23254 0.57877-0.44442 0.32039-0.21187 0.6873-0.21187 0.37207 0 0.5581 0.24288 0.18604 0.24288 0.18604 0.46509 0 0.3824-0.2067 0.62012-0.20154 0.23771-0.49092 0.23771t-0.3824-0.12919q-0.09302-0.13436-0.11369-0.26872-0.02067-0.13952-0.05684-0.21704-0.03101-0.08268-0.13953-0.08268-0.21704 0-0.3824 0.10335-0.16536 0.09819-0.37724 0.29972l-0.84749 4.0204z" style="font-variant-caps:normal;font-variant-east-asian:normal;font-variant-ligatures:normal;font-variant-numeric:normal"/>
    <path d="m42.071 57.457q-0.68213 1.9585-2.2789 1.9585-0.41858 0-0.74931-0.29972-0.32556-0.29972-0.32556-0.96635 0-0.29972 0.08268-0.69246l0.63562-2.9714h-0.3514l0.08785-0.42374h0.34623l0.32039-1.4624 1.5658-0.21187-0.36173 1.6743h0.63562l-0.08268 0.42374h-0.63562l-0.67696 3.1729q-0.04134 0.1912-0.04134 0.37724 0 0.35657 0.42891 0.35657 0.31006 0 0.57361-0.26872 0.26872-0.26872 0.3824-0.66662z" style="font-variant-caps:normal;font-variant-east-asian:normal;font-variant-ligatures:normal;font-variant-numeric:normal"/>
    <path d="m46.056 57.457q-1.1886 1.9585-2.9094 1.9585-0.75447 0-1.2041-0.38757-0.44958-0.39274-0.44958-1.2919 0-1.2092 0.61495-2.3409 0.47025-0.86299 1.2816-1.2299 0.41858-0.19637 0.86816-0.19637 0.7338 0 0.99735 0.27905 0.26355 0.27388 0.26355 0.7338 0 0.90434-0.72864 1.54-0.72864 0.63045-1.7053 0.69246-0.02584 0.29972-0.02584 0.42375 0 0.5426 0.1912 0.7183 0.1912 0.17053 0.53743 0.17053 0.60978 0 1.0232-0.26872 0.41858-0.27388 0.88366-0.80098zm-1.3539-2.5476q0-0.3824-0.26355-0.3824-0.38757 0.01034-0.74931 0.6873-0.36173 0.67179-0.52193 1.4934 0.60978-0.04134 1.0697-0.56844 0.46509-0.5271 0.46509-1.2299z" style="font-variant-caps:normal;font-variant-east-asian:normal;font-variant-ligatures:normal;font-variant-numeric:normal"/>
    <path d="m45.301 59.354 1.1214-5.2916h1.5244l-0.13436 0.65629q0.26355-0.23254 0.57878-0.44442 0.32039-0.21187 0.68729-0.21187 0.37207 0 0.5581 0.24288 0.18603 0.24288 0.18603 0.46509 0 0.3824-0.2067 0.62012-0.20154 0.23771-0.49092 0.23771-0.28939 0-0.3824-0.12919-0.09302-0.13436-0.11369-0.26872-0.02067-0.13952-0.05684-0.21704-0.03101-0.08268-0.13952-0.08268-0.21704 0-0.3824 0.10335-0.16536 0.09819-0.37724 0.29972l-0.84749 4.0204z" style="font-variant-caps:normal;font-variant-east-asian:normal;font-variant-ligatures:normal;font-variant-numeric:normal"/>
    <path d="m52.541 58.434q-0.65629 0.98185-1.5968 0.98185t-1.2712-0.90434q-0.11886-0.32556-0.11886-0.73897 0-0.41858 0.07235-0.83199 0.07235-0.41858 0.22221-0.83199 0.33073-0.9095 0.94568-1.5038 0.61495-0.59428 1.4831-0.59428 0.45475 0 0.65629 0.15503 0.20154 0.14986 0.20154 0.3824v0.07751l0.11369-0.56327h1.5244l-0.75964 3.5967q-0.04651 0.18087-0.04651 0.37207 0 0.36173 0.43408 0.36173 0.13953 0 0.23254-0.04651-0.22221 0.59428-0.37724 0.76998-0.27388 0.29972-0.69763 0.29972-0.41858 0-0.68729-0.25321-0.26872-0.25838-0.33073-0.72864zm0.49609-3.3641q0-0.09818-0.09302-0.24805-0.08785-0.15503-0.3824-0.15503-0.29456 0-0.57361 0.31522-0.67179 0.75964-0.84232 2.1807-0.02584 0.21704-0.02584 0.45992 0 0.47025 0.19637 0.65629 0.11369 0.11369 0.28422 0.11369 0.31523 0 0.57361-0.24805 0.25838-0.25321 0.35657-0.68729z" style="font-variant-caps:normal;font-variant-east-asian:normal;font-variant-ligatures:normal;font-variant-numeric:normal"/>
   </g>
   <path d="m73.585 54.057-0.0579 0.03669v1.6097h-17.498l-0.42013 2.1079h17.918v1.6924l0.0579 0.03669 4.2917-2.742z" stop-color="#000000" stroke-dasharray="0.0732356, 0.0366178, 0.0183089, 0.0366178" stroke-linejoin="round" stroke-width=".036618" style="paint-order:stroke fill markers"/>
  </g>
 </g>
</svg>
